<?xml version="1.0" standalone="no"?>
<!DOCTYPE svg PUBLIC "-//W3C//DTD SVG 20010904//EN"
 "http://www.w3.org/TR/2001/REC-SVG-20010904/DTD/svg10.dtd">
<svg version="1.0" xmlns="http://www.w3.org/2000/svg"
 width="400.000000pt" height="400.000000pt" viewBox="0 0 400.000000 400.000000"
 preserveAspectRatio="xMidYMid meet">

<g transform="translate(0.000000,400.000000) scale(0.100000,-0.100000)"
fill="#000000" stroke="none">
<path d="M1804 3974 c-434 -52 -756 -183 -1065 -432 -87 -71 -256 -242 -320
-327 -215 -281 -357 -623 -400 -961 -15 -124 -6 -455 17 -609 57 -380 263
-777 545 -1050 298 -288 563 -442 923 -535 193 -50 315 -63 546 -57 212 5 296
16 465 61 648 173 1171 666 1380 1299 72 218 88 317 93 576 5 252 -4 351 -49
533 -89 364 -275 686 -550 953 -168 162 -302 257 -514 361 -339 167 -711 232
-1071 188z m105 -750 c17 -14 33 -39 36 -57 6 -29 -36 -249 -104 -554 -10 -45
-16 -85 -13 -88 3 -3 135 -5 293 -5 l289 0 5 23 c3 12 34 164 70 337 62 301
66 316 95 343 45 41 101 38 146 -7 23 -23 34 -43 34 -62 0 -16 -29 -163 -63
-327 -35 -164 -61 -300 -58 -302 2 -3 73 -5 157 -5 149 0 153 -1 183 -26 36
-30 49 -81 31 -125 -24 -57 -46 -63 -244 -69 l-180 -5 -67 -320 c-36 -176 -65
-323 -62 -327 2 -5 114 -8 248 -8 l243 0 31 -26 c39 -33 50 -85 27 -128 -32
-60 -36 -61 -332 -64 l-271 -3 -62 -302 c-39 -193 -68 -311 -80 -327 -57 -80
-191 -39 -191 59 0 32 26 165 94 489 9 40 16 75 16 78 0 2 -132 4 -293 4
l-294 0 -27 -132 c-98 -480 -98 -481 -129 -510 -65 -62 -177 -17 -177 71 0 21
25 157 55 302 30 145 55 264 55 265 0 1 -71 4 -157 6 -170 3 -187 8 -217 59
-27 45 -21 86 18 125 l34 34 180 0 c100 0 183 4 186 9 6 9 136 623 136 641 0
6 -85 10 -235 10 -267 0 -294 5 -321 63 -23 48 -12 98 27 131 l31 26 273 0
273 0 5 23 c4 12 33 155 67 317 33 162 66 308 72 323 27 68 111 89 167 41z
m908 -2231 c98 -46 97 -190 -2 -237 -90 -43 -188 20 -188 120 0 53 24 91 74
116 43 22 71 23 116 1z"/>
<path d="M1777 2293 c-3 -5 -19 -78 -36 -163 -17 -85 -46 -227 -65 -315 -19
-88 -32 -163 -30 -167 7 -11 572 -10 578 1 3 5 13 42 21 82 40 187 115 553
115 560 0 11 -577 12 -583 2z"/>
</g>
</svg>
