<?xml version="1.0" standalone="no"?>
<!DOCTYPE svg PUBLIC "-//W3C//DTD SVG 20010904//EN"
 "http://www.w3.org/TR/2001/REC-SVG-20010904/DTD/svg10.dtd">
<svg version="1.0" xmlns="http://www.w3.org/2000/svg"
 width="400.000000pt" height="400.000000pt" viewBox="0 0 400.000000 400.000000"
 preserveAspectRatio="xMidYMid meet">

<g transform="translate(0.000000,400.000000) scale(0.100000,-0.100000)"
fill="#000000" stroke="none">
<path d="M1490 3408 c-1 -2 -36 -167 -78 -368 l-77 -365 -298 -3 -297 -2 0
-180 0 -180 261 0 c243 0 260 -1 255 -17 -7 -23 -116 -545 -116 -555 0 -4 -90
-8 -200 -8 l-200 0 0 -180 0 -180 160 0 c88 0 160 -2 160 -4 0 -2 -34 -164
-75 -361 -41 -196 -75 -359 -75 -361 0 -2 82 -4 183 -4 l183 0 75 363 76 362
336 3 c293 2 337 0 337 -13 0 -8 -31 -167 -70 -353 -38 -186 -70 -344 -70
-350 0 -9 48 -12 180 -12 178 0 180 0 185 23 8 34 145 698 145 703 0 2 133 4
295 4 l295 0 0 180 0 180 -255 0 c-140 0 -255 3 -255 8 0 4 26 134 57 289 l58
283 198 0 197 0 0 180 0 180 -154 0 c-85 0 -157 3 -159 8 -2 4 29 165 69 357
40 193 73 356 74 363 0 9 -42 12 -179 12 -162 0 -180 -2 -185 -17 -3 -10 -37
-173 -77 -363 -39 -190 -73 -348 -75 -352 -7 -10 -661 -10 -667 0 -3 4 28 165
69 357 40 193 73 356 74 363 0 9 -42 12 -180 12 -99 0 -180 -1 -180 -2z m810
-1101 c0 -12 -119 -569 -122 -573 -3 -2 -155 -3 -339 -2 l-335 3 60 288 60
287 338 0 c186 0 338 -1 338 -3z"/>
<path d="M2745 1028 c-48 -17 -94 -56 -116 -100 -32 -62 -24 -154 17 -205 60
-76 157 -102 239 -64 78 36 115 95 115 182 0 135 -131 230 -255 187z"/>
</g>
</svg>
